<?xml version="1.0" standalone="no"?>
<!DOCTYPE svg PUBLIC "-//W3C//DTD SVG 20010904//EN"
 "http://www.w3.org/TR/2001/REC-SVG-20010904/DTD/svg10.dtd">
<svg version="1.0" xmlns="http://www.w3.org/2000/svg"
 width="288.000000pt" height="288.000000pt" viewBox="0 0 288.000000 288.000000"
 preserveAspectRatio="xMidYMid meet">
<metadata>
Created by potrace 1.11, written by Peter Selinger 2001-2013
</metadata>
<g transform="translate(0.000000,288.000000) scale(0.100000,-0.100000)"
fill="#000000" stroke="none">
<path d="M1323 2709 c-183 -30 -367 -169 -450 -339 -59 -122 -71 -177 -72
-341 l-1 -107 -47 -7 c-103 -15 -193 -82 -243 -181 l-25 -49 -2 -625 c-2 -463
0 -635 9 -665 27 -91 88 -161 178 -204 l55 -26 699 -3 c629 -2 704 -1 750 14
62 20 138 76 170 125 56 84 55 71 53 754 l-2 630 -24 48 c-46 93 -145 168
-242 182 -24 4 -45 8 -46 9 -1 1 -3 53 -4 116 -2 142 -18 220 -63 313 -44 91
-56 107 -140 190 -74 72 -181 132 -281 157 -61 16 -202 20 -272 9z m206 -322
c81 -24 164 -96 202 -175 18 -39 23 -69 27 -169 l4 -123 -322 0 -322 0 4 123
c4 99 9 130 26 167 25 51 73 107 117 137 68 47 182 64 264 40z"/>
</g>
</svg>
