<?xml version="1.0" standalone="no"?>
<!DOCTYPE svg PUBLIC "-//W3C//DTD SVG 20010904//EN"
 "http://www.w3.org/TR/2001/REC-SVG-20010904/DTD/svg10.dtd">
<svg version="1.0" xmlns="http://www.w3.org/2000/svg"
 width="700.000000pt" height="700.000000pt" viewBox="0 0 700.000000 700.000000"
 preserveAspectRatio="xMidYMid meet">
<metadata>
Created by potrace 1.11, written by Peter Selinger 2001-2013
</metadata>
<g transform="translate(0.000000,700.000000) scale(0.100000,-0.100000)"
fill="#000000" stroke="none">
<path d="M3290 6994 c-19 -2 -87 -9 -150 -15 -647 -61 -1294 -326 -1825 -746
-141 -111 -437 -407 -548 -548 -413 -521 -662 -1120 -744 -1785 -24 -200 -24
-600 0 -800 82 -665 331 -1264 744 -1785 111 -141 407 -437 548 -548 521 -413
1120 -662 1785 -744 200 -24 600 -24 800 0 665 82 1264 331 1785 744 141 111
437 407 548 548 413 521 662 1120 744 1785 24 200 24 600 0 800 -82 665 -331
1264 -744 1785 -111 141 -407 437 -548 548 -518 410 -1123 663 -1775 742 -126
15 -542 28 -620 19z m2062 -1025 c243 -51 406 -280 372 -521 -22 -151 -115
-276 -268 -362 -332 -187 -599 -465 -873 -911 -391 -637 -705 -1457 -988
-2585 -83 -330 -105 -386 -179 -463 -155 -161 -385 -193 -575 -82 -75 44 -129
104 -231 255 -243 361 -487 638 -742 842 -190 152 -343 247 -604 375 -135 66
-186 97 -227 137 -189 182 -195 472 -13 658 55 56 143 109 214 127 64 18 181
16 248 -3 77 -23 389 -176 529 -261 285 -173 484 -327 727 -563 l126 -123 15
48 c9 26 35 109 57 183 23 74 75 230 116 346 483 1391 1085 2305 1820 2762
217 135 336 170 476 141z"/>
</g>
</svg>
